<svg width="572" height="47" viewBox="0 0 572 47" fill="none" xmlns="http://www.w3.org/2000/svg">
<path opacity="0.5" d="M7.056 14.252C5.832 14.252 4.74 13.985 3.78 13.451C2.826 12.911 2.073 12.152 1.521 11.174C0.975 10.19 0.702 9.032 0.702 7.7C0.702 6.368 0.978 5.213 1.53 4.235C2.088 3.251 2.85 2.492 3.816 1.958C4.788 1.418 5.892 1.148 7.128 1.148C7.77 1.148 8.382 1.217 8.964 1.355C9.546 1.493 10.056 1.67 10.494 1.886L10.314 3.47C9.864 3.254 9.369 3.071 8.829 2.921C8.289 2.771 7.716 2.696 7.11 2.696C6.12 2.696 5.289 2.921 4.617 3.371C3.945 3.815 3.435 4.415 3.087 5.171C2.745 5.927 2.574 6.77 2.574 7.7C2.574 8.63 2.742 9.473 3.078 10.229C3.42 10.985 3.924 11.588 4.59 12.038C5.262 12.482 6.09 12.704 7.074 12.704C7.698 12.704 8.274 12.638 8.802 12.506C9.336 12.368 9.84 12.182 10.314 11.948L10.494 13.532C10.044 13.736 9.537 13.907 8.973 14.045C8.409 14.183 7.77 14.252 7.056 14.252ZM15.0941 14.18C14.4041 14.18 13.8161 14.042 13.3301 13.766C12.8441 13.484 12.4721 13.058 12.2141 12.488C11.9621 11.918 11.8361 11.192 11.8361 10.31V5.18H13.4561V9.86C13.4561 10.796 13.6151 11.51 13.9331 12.002C14.2571 12.494 14.7821 12.74 15.5081 12.74C16.0061 12.74 16.4681 12.62 16.8941 12.38C17.3201 12.14 17.6141 11.756 17.7761 11.228L17.5421 12.11V5.18H19.1621V14H17.7221L17.3981 12.272L17.8301 12.56C17.5361 13.106 17.1761 13.514 16.7501 13.784C16.3301 14.048 15.7781 14.18 15.0941 14.18ZM21.3656 14V5.18H22.6256L22.9496 6.872L22.3376 6.584C22.8896 5.99 23.4266 5.579 23.9486 5.351C24.4706 5.117 25.0196 5 25.5956 5C26.0276 5 26.4416 5.072 26.8376 5.216C27.2396 5.354 27.5996 5.6 27.9176 5.954C28.2416 6.302 28.4996 6.788 28.6916 7.412L28.2416 7.214C28.5056 6.53 28.9106 5.99 29.4566 5.594C30.0026 5.198 30.7376 5 31.6616 5C32.3996 5 33.0206 5.138 33.5246 5.414C34.0286 5.684 34.4066 6.101 34.6586 6.665C34.9166 7.223 35.0456 7.934 35.0456 8.798V14H33.4256V8.816C33.4256 7.988 33.2636 7.385 32.9396 7.007C32.6156 6.629 32.0876 6.44 31.3556 6.44C30.8396 6.44 30.4256 6.521 30.1136 6.683C29.8016 6.839 29.5646 7.043 29.4026 7.295C29.2466 7.547 29.1416 7.814 29.0876 8.096C29.0396 8.378 29.0156 8.642 29.0156 8.888V14H27.3956V9.14C27.3956 8.42 27.3086 7.865 27.1346 7.475C26.9606 7.085 26.7176 6.815 26.4056 6.665C26.0936 6.515 25.7336 6.44 25.3256 6.44C24.7316 6.44 24.2006 6.572 23.7326 6.836C23.2646 7.094 22.9496 7.508 22.7876 8.078L22.9856 7.196V14H21.3656ZM41.5357 14V1.4H49.2217V2.948H43.2457V6.638H47.9977V8.186H43.2457V12.452H49.3837V14H41.5357ZM53.9564 14.18C53.3984 14.18 52.9514 14.078 52.6154 13.874C52.2794 13.67 52.0334 13.409 51.8774 13.091C51.7274 12.767 51.6524 12.428 51.6524 12.074V6.44H50.1404L50.2844 5.18H51.6524V3.002L53.2724 2.84V5.18H55.5944V6.44H53.2724V11.084C53.2724 11.648 53.3054 12.056 53.3714 12.308C53.4374 12.56 53.5994 12.719 53.8574 12.785C54.1214 12.851 54.5444 12.884 55.1264 12.884H55.5404L55.4144 14.18H53.9564ZM66.9798 14.252C65.7558 14.252 64.6638 13.985 63.7038 13.451C62.7498 12.911 61.9968 12.152 61.4448 11.174C60.8988 10.19 60.6258 9.032 60.6258 7.7C60.6258 6.368 60.9018 5.213 61.4538 4.235C62.0118 3.251 62.7738 2.492 63.7398 1.958C64.7118 1.418 65.8158 1.148 67.0518 1.148C67.6938 1.148 68.3058 1.217 68.8878 1.355C69.4698 1.493 69.9798 1.67 70.4178 1.886L70.2378 3.47C69.7878 3.254 69.2928 3.071 68.7528 2.921C68.2128 2.771 67.6398 2.696 67.0338 2.696C66.0438 2.696 65.2128 2.921 64.5408 3.371C63.8688 3.815 63.3588 4.415 63.0108 5.171C62.6688 5.927 62.4978 6.77 62.4978 7.7C62.4978 8.63 62.6658 9.473 63.0018 10.229C63.3438 10.985 63.8478 11.588 64.5138 12.038C65.1858 12.482 66.0138 12.704 66.9978 12.704C67.6218 12.704 68.1978 12.638 68.7258 12.506C69.2598 12.368 69.7638 12.182 70.2378 11.948L70.4178 13.532C69.9678 13.736 69.4608 13.907 68.8968 14.045C68.3328 14.183 67.6938 14.252 66.9798 14.252ZM75.7195 14.18C74.7955 14.18 74.0065 13.976 73.3525 13.568C72.7045 13.154 72.2065 12.602 71.8585 11.912C71.5165 11.216 71.3455 10.442 71.3455 9.59C71.3455 8.738 71.5165 7.967 71.8585 7.277C72.2065 6.581 72.7045 6.029 73.3525 5.621C74.0065 5.207 74.7955 5 75.7195 5C76.6375 5 77.4235 5.207 78.0775 5.621C78.7315 6.029 79.2295 6.581 79.5715 7.277C79.9195 7.967 80.0935 8.738 80.0935 9.59C80.0935 10.442 79.9195 11.216 79.5715 11.912C79.2295 12.602 78.7315 13.154 78.0775 13.568C77.4235 13.976 76.6375 14.18 75.7195 14.18ZM75.7195 12.74C76.5955 12.74 77.2675 12.464 77.7355 11.912C78.2035 11.354 78.4375 10.58 78.4375 9.59C78.4375 8.6 78.2035 7.829 77.7355 7.277C77.2675 6.719 76.5955 6.44 75.7195 6.44C74.8495 6.44 74.1775 6.719 73.7035 7.277C73.2355 7.829 73.0015 8.6 73.0015 9.59C73.0015 10.58 73.2355 11.354 73.7035 11.912C74.1775 12.464 74.8495 12.74 75.7195 12.74ZM81.764 14V5.18H83.024L83.348 6.872L82.718 6.602C83.312 5.942 83.891 5.51 84.455 5.306C85.025 5.102 85.58 5 86.12 5C87.41 5 88.331 5.372 88.883 6.116C89.441 6.86 89.72 7.868 89.72 9.14V14H88.1V9.14C88.1 8.204 87.926 7.52 87.578 7.088C87.23 6.656 86.636 6.44 85.796 6.44C85.202 6.44 84.656 6.572 84.158 6.836C83.666 7.094 83.342 7.508 83.186 8.078L83.384 7.088V14H81.764ZM94.0202 14L90.6542 5.18H92.4542L94.9202 12.218L97.3682 5.18H99.1862L95.8382 14H94.0202ZM102.396 14.18C101.85 14.18 101.373 14.069 100.965 13.847C100.557 13.625 100.239 13.322 100.011 12.938C99.7891 12.554 99.6781 12.116 99.6781 11.624C99.6781 11.126 99.7861 10.7 100.002 10.346C100.224 9.986 100.518 9.689 100.884 9.455C101.256 9.215 101.67 9.026 102.126 8.888C102.582 8.744 103.053 8.642 103.539 8.582C104.031 8.516 104.502 8.48 104.952 8.474C104.952 7.634 104.787 7.085 104.457 6.827C104.127 6.569 103.65 6.44 103.026 6.44C102.696 6.44 102.342 6.491 101.964 6.593C101.592 6.695 101.172 6.908 100.704 7.232L100.47 5.918C100.824 5.648 101.265 5.429 101.793 5.261C102.321 5.087 102.876 5 103.458 5C104.202 5 104.802 5.132 105.258 5.396C105.714 5.654 106.047 6.092 106.257 6.71C106.467 7.328 106.572 8.168 106.572 9.23V11.03C106.572 11.45 106.59 11.798 106.626 12.074C106.668 12.344 106.758 12.548 106.896 12.686C107.04 12.818 107.268 12.884 107.58 12.884H107.742L107.49 14.18H107.364C106.842 14.18 106.437 14.129 106.149 14.027C105.867 13.925 105.651 13.778 105.501 13.586C105.351 13.394 105.216 13.16 105.096 12.884C104.766 13.268 104.376 13.58 103.926 13.82C103.476 14.06 102.966 14.18 102.396 14.18ZM102.702 12.884C103.134 12.884 103.551 12.776 103.953 12.56C104.361 12.344 104.694 12.056 104.952 11.696V9.59C104.094 9.62 103.398 9.704 102.864 9.842C102.336 9.98 101.949 10.187 101.703 10.463C101.457 10.739 101.334 11.096 101.334 11.534C101.334 12.008 101.46 12.353 101.712 12.569C101.97 12.779 102.3 12.884 102.702 12.884ZM111.261 14.18C110.691 14.18 110.238 14.078 109.902 13.874C109.572 13.664 109.335 13.397 109.191 13.073C109.047 12.749 108.975 12.41 108.975 12.056V0.499999H110.595V11.12C110.595 11.624 110.628 12.002 110.694 12.254C110.76 12.506 110.892 12.674 111.09 12.758C111.294 12.842 111.603 12.884 112.017 12.884L111.783 14.18H111.261ZM115.514 14.18C114.944 14.18 114.491 14.078 114.155 13.874C113.825 13.664 113.588 13.397 113.444 13.073C113.3 12.749 113.228 12.41 113.228 12.056V0.499999H114.848V11.12C114.848 11.624 114.881 12.002 114.947 12.254C115.013 12.506 115.145 12.674 115.343 12.758C115.547 12.842 115.856 12.884 116.27 12.884L116.036 14.18H115.514ZM117.5 14V5.18H119.12V14H117.5ZM117.5 3.2V1.4H119.12V3.2H117.5ZM123.817 14.18C123.037 14.18 122.389 14.087 121.873 13.901C121.363 13.715 121.003 13.55 120.793 13.406L120.991 11.84C121.183 12.008 121.522 12.2 122.008 12.416C122.494 12.632 123.073 12.74 123.745 12.74C124.315 12.74 124.75 12.644 125.05 12.452C125.356 12.26 125.509 11.99 125.509 11.642C125.509 11.336 125.41 11.09 125.212 10.904C125.02 10.712 124.786 10.562 124.51 10.454C124.24 10.34 123.985 10.25 123.745 10.184C123.343 10.076 122.926 9.941 122.494 9.779C122.068 9.611 121.708 9.362 121.414 9.032C121.12 8.702 120.973 8.24 120.973 7.646C120.973 7.196 121.081 6.77 121.297 6.368C121.513 5.96 121.864 5.63 122.35 5.378C122.836 5.126 123.481 5 124.285 5C124.873 5 125.35 5.063 125.716 5.189C126.088 5.309 126.409 5.438 126.679 5.576L126.481 7.052C126.223 6.836 125.923 6.653 125.581 6.503C125.239 6.353 124.819 6.278 124.321 6.278C123.817 6.278 123.406 6.374 123.088 6.566C122.77 6.752 122.611 7.052 122.611 7.466C122.611 7.88 122.779 8.174 123.115 8.348C123.457 8.522 123.973 8.714 124.663 8.924C124.879 8.984 125.128 9.071 125.41 9.185C125.698 9.299 125.977 9.452 126.247 9.644C126.517 9.836 126.739 10.088 126.913 10.4C127.093 10.706 127.183 11.09 127.183 11.552C127.183 11.942 127.09 12.341 126.904 12.749C126.718 13.151 126.382 13.49 125.896 13.766C125.41 14.042 124.717 14.18 123.817 14.18ZM133.153 14V1.4H137.239C138.115 1.4 138.88 1.535 139.534 1.805C140.188 2.075 140.695 2.492 141.055 3.056C141.415 3.62 141.595 4.346 141.595 5.234C141.595 6.098 141.406 6.821 141.028 7.403C140.656 7.985 140.113 8.444 139.399 8.78L142.225 14H140.137L137.581 9.086C137.563 9.086 137.548 9.086 137.536 9.086C137.524 9.086 137.509 9.086 137.491 9.086H134.953V14H133.153ZM134.953 7.556H137.221C138.079 7.556 138.724 7.349 139.156 6.935C139.594 6.521 139.813 5.954 139.813 5.234C139.813 4.502 139.594 3.935 139.156 3.533C138.724 3.131 138.079 2.93 137.221 2.93H134.953V7.556ZM143.534 14V5.18H145.154V14H143.534ZM143.534 3.2V1.4H145.154V3.2H143.534ZM149.85 14.18C149.07 14.18 148.422 14.087 147.906 13.901C147.396 13.715 147.036 13.55 146.826 13.406L147.024 11.84C147.216 12.008 147.555 12.2 148.041 12.416C148.527 12.632 149.106 12.74 149.778 12.74C150.348 12.74 150.783 12.644 151.083 12.452C151.389 12.26 151.542 11.99 151.542 11.642C151.542 11.336 151.443 11.09 151.245 10.904C151.053 10.712 150.819 10.562 150.543 10.454C150.273 10.34 150.018 10.25 149.778 10.184C149.376 10.076 148.959 9.941 148.527 9.779C148.101 9.611 147.741 9.362 147.447 9.032C147.153 8.702 147.006 8.24 147.006 7.646C147.006 7.196 147.114 6.77 147.33 6.368C147.546 5.96 147.897 5.63 148.383 5.378C148.869 5.126 149.514 5 150.318 5C150.906 5 151.383 5.063 151.749 5.189C152.121 5.309 152.442 5.438 152.712 5.576L152.514 7.052C152.256 6.836 151.956 6.653 151.614 6.503C151.272 6.353 150.852 6.278 150.354 6.278C149.85 6.278 149.439 6.374 149.121 6.566C148.803 6.752 148.644 7.052 148.644 7.466C148.644 7.88 148.812 8.174 149.148 8.348C149.49 8.522 150.006 8.714 150.696 8.924C150.912 8.984 151.161 9.071 151.443 9.185C151.731 9.299 152.01 9.452 152.28 9.644C152.55 9.836 152.772 10.088 152.946 10.4C153.126 10.706 153.216 11.09 153.216 11.552C153.216 11.942 153.123 12.341 152.937 12.749C152.751 13.151 152.415 13.49 151.929 13.766C151.443 14.042 150.75 14.18 149.85 14.18ZM157.969 14.18C157.279 14.18 156.691 14.042 156.205 13.766C155.719 13.484 155.347 13.058 155.089 12.488C154.837 11.918 154.711 11.192 154.711 10.31V5.18H156.331V9.86C156.331 10.796 156.49 11.51 156.808 12.002C157.132 12.494 157.657 12.74 158.383 12.74C158.881 12.74 159.343 12.62 159.769 12.38C160.195 12.14 160.489 11.756 160.651 11.228L160.417 12.11V5.18H162.037V14H160.597L160.273 12.272L160.705 12.56C160.411 13.106 160.051 13.514 159.625 13.784C159.205 14.048 158.653 14.18 157.969 14.18ZM166.743 14.18C165.963 14.18 165.315 14.087 164.799 13.901C164.289 13.715 163.929 13.55 163.719 13.406L163.917 11.84C164.109 12.008 164.448 12.2 164.934 12.416C165.42 12.632 165.999 12.74 166.671 12.74C167.241 12.74 167.676 12.644 167.976 12.452C168.282 12.26 168.435 11.99 168.435 11.642C168.435 11.336 168.336 11.09 168.138 10.904C167.946 10.712 167.712 10.562 167.436 10.454C167.166 10.34 166.911 10.25 166.671 10.184C166.269 10.076 165.852 9.941 165.42 9.779C164.994 9.611 164.634 9.362 164.34 9.032C164.046 8.702 163.899 8.24 163.899 7.646C163.899 7.196 164.007 6.77 164.223 6.368C164.439 5.96 164.79 5.63 165.276 5.378C165.762 5.126 166.407 5 167.211 5C167.799 5 168.276 5.063 168.642 5.189C169.014 5.309 169.335 5.438 169.605 5.576L169.407 7.052C169.149 6.836 168.849 6.653 168.507 6.503C168.165 6.353 167.745 6.278 167.247 6.278C166.743 6.278 166.332 6.374 166.014 6.566C165.696 6.752 165.537 7.052 165.537 7.466C165.537 7.88 165.705 8.174 166.041 8.348C166.383 8.522 166.899 8.714 167.589 8.924C167.805 8.984 168.054 9.071 168.336 9.185C168.624 9.299 168.903 9.452 169.173 9.644C169.443 9.836 169.665 10.088 169.839 10.4C170.019 10.706 170.109 11.09 170.109 11.552C170.109 11.942 170.016 12.341 169.83 12.749C169.644 13.151 169.308 13.49 168.822 13.766C168.336 14.042 167.643 14.18 166.743 14.18ZM176.079 14V1.4H180.237C181.083 1.4 181.827 1.535 182.469 1.805C183.111 2.075 183.609 2.51 183.963 3.11C184.323 3.71 184.503 4.502 184.503 5.486C184.503 6.452 184.323 7.238 183.963 7.844C183.609 8.444 183.111 8.885 182.469 9.167C181.827 9.449 181.083 9.59 180.237 9.59H177.879V14H176.079ZM177.879 8.06H179.985C180.903 8.06 181.59 7.853 182.046 7.439C182.508 7.019 182.739 6.374 182.739 5.504C182.739 4.628 182.52 3.98 182.082 3.56C181.65 3.14 180.951 2.93 179.985 2.93H177.879V8.06ZM188.218 14.18C187.648 14.18 187.195 14.078 186.859 13.874C186.529 13.664 186.292 13.397 186.148 13.073C186.004 12.749 185.932 12.41 185.932 12.056V0.499999H187.552V11.12C187.552 11.624 187.585 12.002 187.651 12.254C187.717 12.506 187.849 12.674 188.047 12.758C188.251 12.842 188.56 12.884 188.974 12.884L188.74 14.18H188.218ZM192.255 14.18C191.709 14.18 191.232 14.069 190.824 13.847C190.416 13.625 190.098 13.322 189.87 12.938C189.648 12.554 189.537 12.116 189.537 11.624C189.537 11.126 189.645 10.7 189.861 10.346C190.083 9.986 190.377 9.689 190.743 9.455C191.115 9.215 191.529 9.026 191.985 8.888C192.441 8.744 192.912 8.642 193.398 8.582C193.89 8.516 194.361 8.48 194.811 8.474C194.811 7.634 194.646 7.085 194.316 6.827C193.986 6.569 193.509 6.44 192.885 6.44C192.555 6.44 192.201 6.491 191.823 6.593C191.451 6.695 191.031 6.908 190.563 7.232L190.329 5.918C190.683 5.648 191.124 5.429 191.652 5.261C192.18 5.087 192.735 5 193.317 5C194.061 5 194.661 5.132 195.117 5.396C195.573 5.654 195.906 6.092 196.116 6.71C196.326 7.328 196.431 8.168 196.431 9.23V11.03C196.431 11.45 196.449 11.798 196.485 12.074C196.527 12.344 196.617 12.548 196.755 12.686C196.899 12.818 197.127 12.884 197.439 12.884H197.601L197.349 14.18H197.223C196.701 14.18 196.296 14.129 196.008 14.027C195.726 13.925 195.51 13.778 195.36 13.586C195.21 13.394 195.075 13.16 194.955 12.884C194.625 13.268 194.235 13.58 193.785 13.82C193.335 14.06 192.825 14.18 192.255 14.18ZM192.561 12.884C192.993 12.884 193.41 12.776 193.812 12.56C194.22 12.344 194.553 12.056 194.811 11.696V9.59C193.953 9.62 193.257 9.704 192.723 9.842C192.195 9.98 191.808 10.187 191.562 10.463C191.316 10.739 191.193 11.096 191.193 11.534C191.193 12.008 191.319 12.353 191.571 12.569C191.829 12.779 192.159 12.884 192.561 12.884ZM202.902 14.18C201.906 14.18 201.069 13.979 200.391 13.577C199.719 13.169 199.209 12.623 198.861 11.939C198.519 11.249 198.348 10.484 198.348 9.644C198.348 8.768 198.513 7.979 198.843 7.277C199.179 6.575 199.692 6.02 200.382 5.612C201.072 5.204 201.954 5 203.028 5C203.49 5 203.925 5.048 204.333 5.144C204.747 5.234 205.116 5.36 205.44 5.522L205.188 6.944C204.858 6.788 204.507 6.665 204.135 6.575C203.769 6.485 203.388 6.44 202.992 6.44C202.02 6.44 201.279 6.716 200.769 7.268C200.259 7.82 200.004 8.588 200.004 9.572C200.004 10.532 200.247 11.303 200.733 11.885C201.219 12.467 201.96 12.758 202.956 12.758C203.364 12.758 203.754 12.71 204.126 12.614C204.504 12.518 204.864 12.386 205.206 12.218L205.422 13.514C205.182 13.682 204.831 13.835 204.369 13.973C203.907 14.111 203.418 14.18 202.902 14.18ZM211.133 14.18C210.095 14.18 209.222 13.967 208.514 13.541C207.806 13.115 207.269 12.551 206.903 11.849C206.543 11.141 206.363 10.364 206.363 9.518C206.363 8.696 206.531 7.943 206.867 7.259C207.209 6.575 207.701 6.029 208.343 5.621C208.991 5.207 209.771 5 210.683 5C211.415 5 212.066 5.147 212.636 5.441C213.212 5.729 213.662 6.152 213.986 6.71C214.316 7.262 214.481 7.934 214.481 8.726C214.481 8.852 214.475 8.99 214.463 9.14C214.457 9.284 214.439 9.434 214.409 9.59H208.019C208.097 10.406 208.292 11.042 208.604 11.498C208.916 11.954 209.309 12.275 209.783 12.461C210.257 12.647 210.773 12.74 211.331 12.74C211.739 12.74 212.165 12.698 212.609 12.614C213.053 12.53 213.473 12.398 213.869 12.218L214.085 13.496C213.743 13.646 213.326 13.799 212.834 13.955C212.342 14.105 211.775 14.18 211.133 14.18ZM208.163 8.474H212.807C212.807 8.06 212.729 7.7 212.573 7.394C212.417 7.088 212.18 6.854 211.862 6.692C211.544 6.524 211.139 6.44 210.647 6.44C209.927 6.44 209.372 6.62 208.982 6.98C208.598 7.334 208.325 7.832 208.163 8.474ZM216.114 14V5.18H217.446L217.644 6.638C218.094 6.08 218.523 5.669 218.931 5.405C219.345 5.135 219.786 5 220.254 5C220.404 5 220.542 5.018 220.668 5.054L220.506 6.836C220.428 6.818 220.344 6.806 220.254 6.8C220.17 6.788 220.074 6.782 219.966 6.782C219.498 6.782 219.066 6.887 218.67 7.097C218.28 7.301 218.004 7.526 217.842 7.772V14H216.114ZM223.738 14.18C223.192 14.18 222.715 14.069 222.307 13.847C221.899 13.625 221.581 13.322 221.353 12.938C221.131 12.554 221.02 12.116 221.02 11.624C221.02 11.126 221.128 10.7 221.344 10.346C221.566 9.986 221.86 9.689 222.226 9.455C222.598 9.215 223.012 9.026 223.468 8.888C223.924 8.744 224.395 8.642 224.881 8.582C225.373 8.516 225.844 8.48 226.294 8.474C226.294 7.634 226.129 7.085 225.799 6.827C225.469 6.569 224.992 6.44 224.368 6.44C224.038 6.44 223.684 6.491 223.306 6.593C222.934 6.695 222.514 6.908 222.046 7.232L221.812 5.918C222.166 5.648 222.607 5.429 223.135 5.261C223.663 5.087 224.218 5 224.8 5C225.544 5 226.144 5.132 226.6 5.396C227.056 5.654 227.389 6.092 227.599 6.71C227.809 7.328 227.914 8.168 227.914 9.23V11.03C227.914 11.45 227.932 11.798 227.968 12.074C228.01 12.344 228.1 12.548 228.238 12.686C228.382 12.818 228.61 12.884 228.922 12.884H229.084L228.832 14.18H228.706C228.184 14.18 227.779 14.129 227.491 14.027C227.209 13.925 226.993 13.778 226.843 13.586C226.693 13.394 226.558 13.16 226.438 12.884C226.108 13.268 225.718 13.58 225.268 13.82C224.818 14.06 224.308 14.18 223.738 14.18ZM224.044 12.884C224.476 12.884 224.893 12.776 225.295 12.56C225.703 12.344 226.036 12.056 226.294 11.696V9.59C225.436 9.62 224.74 9.704 224.206 9.842C223.678 9.98 223.291 10.187 223.045 10.463C222.799 10.739 222.676 11.096 222.676 11.534C222.676 12.008 222.802 12.353 223.054 12.569C223.312 12.779 223.642 12.884 224.044 12.884ZM233.201 14.18C232.643 14.18 232.196 14.078 231.86 13.874C231.524 13.67 231.278 13.409 231.122 13.091C230.972 12.767 230.897 12.428 230.897 12.074V6.44H229.385L229.529 5.18H230.897V3.002L232.517 2.84V5.18H234.839V6.44H232.517V11.084C232.517 11.648 232.55 12.056 232.616 12.308C232.682 12.56 232.844 12.719 233.102 12.785C233.366 12.851 233.789 12.884 234.371 12.884H234.785L234.659 14.18H233.201ZM247.412 10.598H242.012V9.05H247.412V10.598ZM244.46 3.074H244.964L241.094 14H239.294L243.812 1.4H245.612L250.13 14H248.33L244.46 3.074ZM253.503 14.18C252.933 14.18 252.48 14.078 252.144 13.874C251.814 13.664 251.577 13.397 251.433 13.073C251.289 12.749 251.217 12.41 251.217 12.056V0.499999H252.837V11.12C252.837 11.624 252.87 12.002 252.936 12.254C253.002 12.506 253.134 12.674 253.332 12.758C253.536 12.842 253.845 12.884 254.259 12.884L254.025 14.18H253.503ZM255.489 14V5.18H257.109V14H255.489ZM255.489 3.2V1.4H257.109V3.2H255.489ZM265.513 18.356V12.11L265.783 12.434C265.543 13.016 265.15 13.454 264.604 13.748C264.064 14.036 263.443 14.18 262.741 14.18C261.871 14.18 261.142 13.976 260.554 13.568C259.972 13.16 259.534 12.611 259.24 11.921C258.946 11.225 258.799 10.448 258.799 9.59C258.799 8.786 258.955 8.036 259.267 7.34C259.579 6.638 260.026 6.074 260.608 5.648C261.196 5.216 261.901 5 262.723 5C263.551 5 264.217 5.165 264.721 5.495C265.231 5.819 265.669 6.278 266.035 6.872L265.585 7.196L265.873 5.18H267.133V18.356H265.513ZM262.957 12.74C263.443 12.74 263.884 12.632 264.28 12.416C264.682 12.194 265.003 11.852 265.243 11.39C265.483 10.928 265.603 10.328 265.603 9.59C265.603 8.528 265.345 7.739 264.829 7.223C264.313 6.701 263.689 6.44 262.957 6.44C262.177 6.44 261.565 6.719 261.121 7.277C260.677 7.829 260.455 8.6 260.455 9.59C260.455 10.58 260.677 11.354 261.121 11.912C261.565 12.464 262.177 12.74 262.957 12.74ZM272.491 14.18C271.801 14.18 271.213 14.042 270.727 13.766C270.241 13.484 269.869 13.058 269.611 12.488C269.359 11.918 269.233 11.192 269.233 10.31V5.18H270.853V9.86C270.853 10.796 271.012 11.51 271.33 12.002C271.654 12.494 272.179 12.74 272.905 12.74C273.403 12.74 273.865 12.62 274.291 12.38C274.717 12.14 275.011 11.756 275.173 11.228L274.939 12.11V5.18H276.559V14H275.119L274.795 12.272L275.227 12.56C274.933 13.106 274.573 13.514 274.147 13.784C273.727 14.048 273.175 14.18 272.491 14.18ZM280.814 14.18C280.268 14.18 279.791 14.069 279.383 13.847C278.975 13.625 278.657 13.322 278.429 12.938C278.207 12.554 278.096 12.116 278.096 11.624C278.096 11.126 278.204 10.7 278.42 10.346C278.642 9.986 278.936 9.689 279.302 9.455C279.674 9.215 280.088 9.026 280.544 8.888C281 8.744 281.471 8.642 281.957 8.582C282.449 8.516 282.92 8.48 283.37 8.474C283.37 7.634 283.205 7.085 282.875 6.827C282.545 6.569 282.068 6.44 281.444 6.44C281.114 6.44 280.76 6.491 280.382 6.593C280.01 6.695 279.59 6.908 279.122 7.232L278.888 5.918C279.242 5.648 279.683 5.429 280.211 5.261C280.739 5.087 281.294 5 281.876 5C282.62 5 283.22 5.132 283.676 5.396C284.132 5.654 284.465 6.092 284.675 6.71C284.885 7.328 284.99 8.168 284.99 9.23V11.03C284.99 11.45 285.008 11.798 285.044 12.074C285.086 12.344 285.176 12.548 285.314 12.686C285.458 12.818 285.686 12.884 285.998 12.884H286.16L285.908 14.18H285.782C285.26 14.18 284.855 14.129 284.567 14.027C284.285 13.925 284.069 13.778 283.919 13.586C283.769 13.394 283.634 13.16 283.514 12.884C283.184 13.268 282.794 13.58 282.344 13.82C281.894 14.06 281.384 14.18 280.814 14.18ZM281.12 12.884C281.552 12.884 281.969 12.776 282.371 12.56C282.779 12.344 283.112 12.056 283.37 11.696V9.59C282.512 9.62 281.816 9.704 281.282 9.842C280.754 9.98 280.367 10.187 280.121 10.463C279.875 10.739 279.752 11.096 279.752 11.534C279.752 12.008 279.878 12.353 280.13 12.569C280.388 12.779 280.718 12.884 281.12 12.884ZM287.411 14V5.18H288.671L288.995 6.872L288.383 6.584C288.935 5.99 289.472 5.579 289.994 5.351C290.516 5.117 291.065 5 291.641 5C292.073 5 292.487 5.072 292.883 5.216C293.285 5.354 293.645 5.6 293.963 5.954C294.287 6.302 294.545 6.788 294.737 7.412L294.287 7.214C294.551 6.53 294.956 5.99 295.502 5.594C296.048 5.198 296.783 5 297.707 5C298.445 5 299.066 5.138 299.57 5.414C300.074 5.684 300.452 6.101 300.704 6.665C300.962 7.223 301.091 7.934 301.091 8.798V14H299.471V8.816C299.471 7.988 299.309 7.385 298.985 7.007C298.661 6.629 298.133 6.44 297.401 6.44C296.885 6.44 296.471 6.521 296.159 6.683C295.847 6.839 295.61 7.043 295.448 7.295C295.292 7.547 295.187 7.814 295.133 8.096C295.085 8.378 295.061 8.642 295.061 8.888V14H293.441V9.14C293.441 8.42 293.354 7.865 293.18 7.475C293.006 7.085 292.763 6.815 292.451 6.665C292.139 6.515 291.779 6.44 291.371 6.44C290.777 6.44 290.246 6.572 289.778 6.836C289.31 7.094 288.995 7.508 288.833 8.078L289.031 7.196V14H287.411ZM304.15 15.926H303.124L303.772 14H303.142V12.092H305.086V13.82L304.15 15.926ZM311.465 14V1.4H313.319L319.529 10.832V1.4H321.257V14H319.799L313.175 4.046V14H311.465ZM326.772 14.18C326.082 14.18 325.494 14.042 325.008 13.766C324.522 13.484 324.15 13.058 323.892 12.488C323.64 11.918 323.514 11.192 323.514 10.31V5.18H325.134V9.86C325.134 10.796 325.293 11.51 325.611 12.002C325.935 12.494 326.46 12.74 327.186 12.74C327.684 12.74 328.146 12.62 328.572 12.38C328.998 12.14 329.292 11.756 329.454 11.228L329.22 12.11V5.18H330.84V14H329.4L329.076 12.272L329.508 12.56C329.214 13.106 328.854 13.514 328.428 13.784C328.008 14.048 327.456 14.18 326.772 14.18ZM333.043 14V5.18H334.303L334.627 6.872L333.997 6.602C334.591 5.942 335.17 5.51 335.734 5.306C336.304 5.102 336.859 5 337.399 5C338.689 5 339.61 5.372 340.162 6.116C340.72 6.86 340.999 7.868 340.999 9.14V14H339.379V9.14C339.379 8.204 339.205 7.52 338.857 7.088C338.509 6.656 337.915 6.44 337.075 6.44C336.481 6.44 335.935 6.572 335.437 6.836C334.945 7.094 334.621 7.508 334.465 8.078L334.663 7.088V14H333.043ZM347.148 14.18C346.152 14.18 345.315 13.979 344.637 13.577C343.965 13.169 343.455 12.623 343.107 11.939C342.765 11.249 342.594 10.484 342.594 9.644C342.594 8.768 342.759 7.979 343.089 7.277C343.425 6.575 343.938 6.02 344.628 5.612C345.318 5.204 346.2 5 347.274 5C347.736 5 348.171 5.048 348.579 5.144C348.993 5.234 349.362 5.36 349.686 5.522L349.434 6.944C349.104 6.788 348.753 6.665 348.381 6.575C348.015 6.485 347.634 6.44 347.238 6.44C346.266 6.44 345.525 6.716 345.015 7.268C344.505 7.82 344.25 8.588 344.25 9.572C344.25 10.532 344.493 11.303 344.979 11.885C345.465 12.467 346.206 12.758 347.202 12.758C347.61 12.758 348 12.71 348.372 12.614C348.75 12.518 349.11 12.386 349.452 12.218L349.668 13.514C349.428 13.682 349.077 13.835 348.615 13.973C348.153 14.111 347.664 14.18 347.148 14.18ZM351.074 14V12.092H353.018V14H351.074ZM363.001 14.252C362.479 14.252 361.957 14.213 361.435 14.135C360.913 14.057 360.43 13.958 359.986 13.838C359.542 13.712 359.173 13.58 358.879 13.442L359.113 11.624C359.437 11.78 359.827 11.942 360.283 12.11C360.745 12.278 361.243 12.419 361.777 12.533C362.311 12.647 362.851 12.704 363.397 12.704C364.207 12.704 364.849 12.557 365.323 12.263C365.803 11.963 366.043 11.498 366.043 10.868C366.043 10.394 365.923 10.007 365.683 9.707C365.443 9.401 365.08 9.14 364.594 8.924C364.114 8.708 363.511 8.492 362.785 8.276C362.095 8.072 361.459 7.832 360.877 7.556C360.295 7.274 359.827 6.899 359.473 6.431C359.125 5.957 358.951 5.33 358.951 4.55C358.951 3.884 359.122 3.296 359.464 2.786C359.812 2.27 360.319 1.868 360.985 1.58C361.657 1.292 362.479 1.148 363.451 1.148C364.279 1.148 365.038 1.238 365.728 1.418C366.424 1.598 366.997 1.796 367.447 2.012L367.267 3.83C366.583 3.422 365.929 3.131 365.305 2.957C364.687 2.783 364.045 2.696 363.379 2.696C362.641 2.696 362.029 2.834 361.543 3.11C361.063 3.386 360.823 3.836 360.823 4.46C360.823 4.88 360.931 5.225 361.147 5.495C361.363 5.759 361.684 5.987 362.11 6.179C362.536 6.365 363.067 6.554 363.703 6.746C364.579 7.01 365.332 7.313 365.962 7.655C366.592 7.991 367.075 8.408 367.411 8.906C367.747 9.398 367.915 10.01 367.915 10.742C367.915 11.282 367.813 11.768 367.609 12.2C367.405 12.632 367.099 13.001 366.691 13.307C366.283 13.613 365.77 13.847 365.152 14.009C364.54 14.171 363.823 14.252 363.001 14.252ZM373.621 14.18C372.625 14.18 371.788 13.979 371.11 13.577C370.438 13.169 369.928 12.623 369.58 11.939C369.238 11.249 369.067 10.484 369.067 9.644C369.067 8.768 369.232 7.979 369.562 7.277C369.898 6.575 370.411 6.02 371.101 5.612C371.791 5.204 372.673 5 373.747 5C374.209 5 374.644 5.048 375.052 5.144C375.466 5.234 375.835 5.36 376.159 5.522L375.907 6.944C375.577 6.788 375.226 6.665 374.854 6.575C374.488 6.485 374.107 6.44 373.711 6.44C372.739 6.44 371.998 6.716 371.488 7.268C370.978 7.82 370.723 8.588 370.723 9.572C370.723 10.532 370.966 11.303 371.452 11.885C371.938 12.467 372.679 12.758 373.675 12.758C374.083 12.758 374.473 12.71 374.845 12.614C375.223 12.518 375.583 12.386 375.925 12.218L376.141 13.514C375.901 13.682 375.55 13.835 375.088 13.973C374.626 14.111 374.137 14.18 373.621 14.18ZM381.851 14.18C380.813 14.18 379.94 13.967 379.232 13.541C378.524 13.115 377.987 12.551 377.621 11.849C377.261 11.141 377.081 10.364 377.081 9.518C377.081 8.696 377.249 7.943 377.585 7.259C377.927 6.575 378.419 6.029 379.061 5.621C379.709 5.207 380.489 5 381.401 5C382.133 5 382.784 5.147 383.354 5.441C383.93 5.729 384.38 6.152 384.704 6.71C385.034 7.262 385.199 7.934 385.199 8.726C385.199 8.852 385.193 8.99 385.181 9.14C385.175 9.284 385.157 9.434 385.127 9.59H378.737C378.815 10.406 379.01 11.042 379.322 11.498C379.634 11.954 380.027 12.275 380.501 12.461C380.975 12.647 381.491 12.74 382.049 12.74C382.457 12.74 382.883 12.698 383.327 12.614C383.771 12.53 384.191 12.398 384.587 12.218L384.803 13.496C384.461 13.646 384.044 13.799 383.552 13.955C383.06 14.105 382.493 14.18 381.851 14.18ZM378.881 8.474H383.525C383.525 8.06 383.447 7.7 383.291 7.394C383.135 7.088 382.898 6.854 382.58 6.692C382.262 6.524 381.857 6.44 381.365 6.44C380.645 6.44 380.09 6.62 379.7 6.98C379.316 7.334 379.043 7.832 378.881 8.474ZM389.1 14.18C388.53 14.18 388.077 14.078 387.741 13.874C387.411 13.664 387.174 13.397 387.03 13.073C386.886 12.749 386.814 12.41 386.814 12.056V0.499999H388.434V11.12C388.434 11.624 388.467 12.002 388.533 12.254C388.599 12.506 388.731 12.674 388.929 12.758C389.133 12.842 389.442 12.884 389.856 12.884L389.622 14.18H389.1ZM395.228 14.18C394.19 14.18 393.317 13.967 392.609 13.541C391.901 13.115 391.364 12.551 390.998 11.849C390.638 11.141 390.458 10.364 390.458 9.518C390.458 8.696 390.626 7.943 390.962 7.259C391.304 6.575 391.796 6.029 392.438 5.621C393.086 5.207 393.866 5 394.778 5C395.51 5 396.161 5.147 396.731 5.441C397.307 5.729 397.757 6.152 398.081 6.71C398.411 7.262 398.576 7.934 398.576 8.726C398.576 8.852 398.57 8.99 398.558 9.14C398.552 9.284 398.534 9.434 398.504 9.59H392.114C392.192 10.406 392.387 11.042 392.699 11.498C393.011 11.954 393.404 12.275 393.878 12.461C394.352 12.647 394.868 12.74 395.426 12.74C395.834 12.74 396.26 12.698 396.704 12.614C397.148 12.53 397.568 12.398 397.964 12.218L398.18 13.496C397.838 13.646 397.421 13.799 396.929 13.955C396.437 14.105 395.87 14.18 395.228 14.18ZM392.258 8.474H396.902C396.902 8.06 396.824 7.7 396.668 7.394C396.512 7.088 396.275 6.854 395.957 6.692C395.639 6.524 395.234 6.44 394.742 6.44C394.022 6.44 393.467 6.62 393.077 6.98C392.693 7.334 392.42 7.832 392.258 8.474ZM400.209 14V5.18H401.541L401.739 6.638C402.189 6.08 402.618 5.669 403.026 5.405C403.44 5.135 403.881 5 404.349 5C404.499 5 404.637 5.018 404.763 5.054L404.601 6.836C404.523 6.818 404.439 6.806 404.349 6.8C404.265 6.788 404.169 6.782 404.061 6.782C403.593 6.782 403.161 6.887 402.765 7.097C402.375 7.301 402.099 7.526 401.937 7.772V14H400.209ZM405.905 14V5.18H407.525V14H405.905ZM405.905 3.2V1.4H407.525V3.2H405.905ZM412.221 14.18C411.441 14.18 410.793 14.087 410.277 13.901C409.767 13.715 409.407 13.55 409.197 13.406L409.395 11.84C409.587 12.008 409.926 12.2 410.412 12.416C410.898 12.632 411.477 12.74 412.149 12.74C412.719 12.74 413.154 12.644 413.454 12.452C413.76 12.26 413.913 11.99 413.913 11.642C413.913 11.336 413.814 11.09 413.616 10.904C413.424 10.712 413.19 10.562 412.914 10.454C412.644 10.34 412.389 10.25 412.149 10.184C411.747 10.076 411.33 9.941 410.898 9.779C410.472 9.611 410.112 9.362 409.818 9.032C409.524 8.702 409.377 8.24 409.377 7.646C409.377 7.196 409.485 6.77 409.701 6.368C409.917 5.96 410.268 5.63 410.754 5.378C411.24 5.126 411.885 5 412.689 5C413.277 5 413.754 5.063 414.12 5.189C414.492 5.309 414.813 5.438 415.083 5.576L414.885 7.052C414.627 6.836 414.327 6.653 413.985 6.503C413.643 6.353 413.223 6.278 412.725 6.278C412.221 6.278 411.81 6.374 411.492 6.566C411.174 6.752 411.015 7.052 411.015 7.466C411.015 7.88 411.183 8.174 411.519 8.348C411.861 8.522 412.377 8.714 413.067 8.924C413.283 8.984 413.532 9.071 413.814 9.185C414.102 9.299 414.381 9.452 414.651 9.644C414.921 9.836 415.143 10.088 415.317 10.4C415.497 10.706 415.587 11.09 415.587 11.552C415.587 11.942 415.494 12.341 415.308 12.749C415.122 13.151 414.786 13.49 414.3 13.766C413.814 14.042 413.121 14.18 412.221 14.18ZM423.382 18.356V12.11L423.652 12.434C423.412 13.016 423.019 13.454 422.473 13.748C421.933 14.036 421.312 14.18 420.61 14.18C419.74 14.18 419.011 13.976 418.423 13.568C417.841 13.16 417.403 12.611 417.109 11.921C416.815 11.225 416.668 10.448 416.668 9.59C416.668 8.786 416.824 8.036 417.136 7.34C417.448 6.638 417.895 6.074 418.477 5.648C419.065 5.216 419.77 5 420.592 5C421.42 5 422.086 5.165 422.59 5.495C423.1 5.819 423.538 6.278 423.904 6.872L423.454 7.196L423.742 5.18H425.002V18.356H423.382ZM420.826 12.74C421.312 12.74 421.753 12.632 422.149 12.416C422.551 12.194 422.872 11.852 423.112 11.39C423.352 10.928 423.472 10.328 423.472 9.59C423.472 8.528 423.214 7.739 422.698 7.223C422.182 6.701 421.558 6.44 420.826 6.44C420.046 6.44 419.434 6.719 418.99 7.277C418.546 7.829 418.324 8.6 418.324 9.59C418.324 10.58 418.546 11.354 418.99 11.912C419.434 12.464 420.046 12.74 420.826 12.74ZM430.36 14.18C429.67 14.18 429.082 14.042 428.596 13.766C428.11 13.484 427.738 13.058 427.48 12.488C427.228 11.918 427.102 11.192 427.102 10.31V5.18H428.722V9.86C428.722 10.796 428.881 11.51 429.199 12.002C429.523 12.494 430.048 12.74 430.774 12.74C431.272 12.74 431.734 12.62 432.16 12.38C432.586 12.14 432.88 11.756 433.042 11.228L432.808 12.11V5.18H434.428V14H432.988L432.664 12.272L433.096 12.56C432.802 13.106 432.442 13.514 432.016 13.784C431.596 14.048 431.044 14.18 430.36 14.18ZM440.861 14.18C439.823 14.18 438.95 13.967 438.242 13.541C437.534 13.115 436.997 12.551 436.631 11.849C436.271 11.141 436.091 10.364 436.091 9.518C436.091 8.696 436.259 7.943 436.595 7.259C436.937 6.575 437.429 6.029 438.071 5.621C438.719 5.207 439.499 5 440.411 5C441.143 5 441.794 5.147 442.364 5.441C442.94 5.729 443.39 6.152 443.714 6.71C444.044 7.262 444.209 7.934 444.209 8.726C444.209 8.852 444.203 8.99 444.191 9.14C444.185 9.284 444.167 9.434 444.137 9.59H437.747C437.825 10.406 438.02 11.042 438.332 11.498C438.644 11.954 439.037 12.275 439.511 12.461C439.985 12.647 440.501 12.74 441.059 12.74C441.467 12.74 441.893 12.698 442.337 12.614C442.781 12.53 443.201 12.398 443.597 12.218L443.813 13.496C443.471 13.646 443.054 13.799 442.562 13.955C442.07 14.105 441.503 14.18 440.861 14.18ZM437.891 8.474H442.535C442.535 8.06 442.457 7.7 442.301 7.394C442.145 7.088 441.908 6.854 441.59 6.692C441.272 6.524 440.867 6.44 440.375 6.44C439.655 6.44 439.1 6.62 438.71 6.98C438.326 7.334 438.053 7.832 437.891 8.474ZM457.031 10.598H451.631V9.05H457.031V10.598ZM454.079 3.074H454.583L450.713 14H448.913L453.431 1.4H455.231L459.749 14H457.949L454.079 3.074ZM463.122 14.18C462.552 14.18 462.099 14.078 461.763 13.874C461.433 13.664 461.196 13.397 461.052 13.073C460.908 12.749 460.836 12.41 460.836 12.056V0.499999H462.456V11.12C462.456 11.624 462.489 12.002 462.555 12.254C462.621 12.506 462.753 12.674 462.951 12.758C463.155 12.842 463.464 12.884 463.878 12.884L463.644 14.18H463.122ZM465.108 14V5.18H466.728V14H465.108ZM465.108 3.2V1.4H466.728V3.2H465.108ZM475.132 18.356V12.11L475.402 12.434C475.162 13.016 474.769 13.454 474.223 13.748C473.683 14.036 473.062 14.18 472.36 14.18C471.49 14.18 470.761 13.976 470.173 13.568C469.591 13.16 469.153 12.611 468.859 11.921C468.565 11.225 468.418 10.448 468.418 9.59C468.418 8.786 468.574 8.036 468.886 7.34C469.198 6.638 469.645 6.074 470.227 5.648C470.815 5.216 471.52 5 472.342 5C473.17 5 473.836 5.165 474.34 5.495C474.85 5.819 475.288 6.278 475.654 6.872L475.204 7.196L475.492 5.18H476.752V18.356H475.132ZM472.576 12.74C473.062 12.74 473.503 12.632 473.899 12.416C474.301 12.194 474.622 11.852 474.862 11.39C475.102 10.928 475.222 10.328 475.222 9.59C475.222 8.528 474.964 7.739 474.448 7.223C473.932 6.701 473.308 6.44 472.576 6.44C471.796 6.44 471.184 6.719 470.74 7.277C470.296 7.829 470.074 8.6 470.074 9.59C470.074 10.58 470.296 11.354 470.74 11.912C471.184 12.464 471.796 12.74 472.576 12.74ZM482.11 14.18C481.42 14.18 480.832 14.042 480.346 13.766C479.86 13.484 479.488 13.058 479.23 12.488C478.978 11.918 478.852 11.192 478.852 10.31V5.18H480.472V9.86C480.472 10.796 480.631 11.51 480.949 12.002C481.273 12.494 481.798 12.74 482.524 12.74C483.022 12.74 483.484 12.62 483.91 12.38C484.336 12.14 484.63 11.756 484.792 11.228L484.558 12.11V5.18H486.178V14H484.738L484.414 12.272L484.846 12.56C484.552 13.106 484.192 13.514 483.766 13.784C483.346 14.048 482.794 14.18 482.11 14.18ZM492.611 14.18C491.573 14.18 490.7 13.967 489.992 13.541C489.284 13.115 488.747 12.551 488.381 11.849C488.021 11.141 487.841 10.364 487.841 9.518C487.841 8.696 488.009 7.943 488.345 7.259C488.687 6.575 489.179 6.029 489.821 5.621C490.469 5.207 491.249 5 492.161 5C492.893 5 493.544 5.147 494.114 5.441C494.69 5.729 495.14 6.152 495.464 6.71C495.794 7.262 495.959 7.934 495.959 8.726C495.959 8.852 495.953 8.99 495.941 9.14C495.935 9.284 495.917 9.434 495.887 9.59H489.497C489.575 10.406 489.77 11.042 490.082 11.498C490.394 11.954 490.787 12.275 491.261 12.461C491.735 12.647 492.251 12.74 492.809 12.74C493.217 12.74 493.643 12.698 494.087 12.614C494.531 12.53 494.951 12.398 495.347 12.218L495.563 13.496C495.221 13.646 494.804 13.799 494.312 13.955C493.82 14.105 493.253 14.18 492.611 14.18ZM489.641 8.474H494.285C494.285 8.06 494.207 7.7 494.051 7.394C493.895 7.088 493.658 6.854 493.34 6.692C493.022 6.524 492.617 6.44 492.125 6.44C491.405 6.44 490.85 6.62 490.46 6.98C490.076 7.334 489.803 7.832 489.641 8.474ZM500.634 14.18C500.076 14.18 499.629 14.078 499.293 13.874C498.957 13.67 498.711 13.409 498.555 13.091C498.405 12.767 498.33 12.428 498.33 12.074V6.44H496.818L496.962 5.18H498.33V3.002L499.95 2.84V5.18H502.272V6.44H499.95V11.084C499.95 11.648 499.983 12.056 500.049 12.308C500.115 12.56 500.277 12.719 500.535 12.785C500.799 12.851 501.222 12.884 501.804 12.884H502.218L502.092 14.18H500.634ZM508.042 14V1.4H515.728V2.948H509.752V6.638H514.36V8.186H509.752V14H508.042ZM518.154 14.18C517.608 14.18 517.131 14.069 516.723 13.847C516.315 13.625 515.997 13.322 515.769 12.938C515.547 12.554 515.436 12.116 515.436 11.624C515.436 11.126 515.544 10.7 515.76 10.346C515.982 9.986 516.276 9.689 516.642 9.455C517.014 9.215 517.428 9.026 517.884 8.888C518.34 8.744 518.811 8.642 519.297 8.582C519.789 8.516 520.26 8.48 520.71 8.474C520.71 7.634 520.545 7.085 520.215 6.827C519.885 6.569 519.408 6.44 518.784 6.44C518.454 6.44 518.1 6.491 517.722 6.593C517.35 6.695 516.93 6.908 516.462 7.232L516.228 5.918C516.582 5.648 517.023 5.429 517.551 5.261C518.079 5.087 518.634 5 519.216 5C519.96 5 520.56 5.132 521.016 5.396C521.472 5.654 521.805 6.092 522.015 6.71C522.225 7.328 522.33 8.168 522.33 9.23V11.03C522.33 11.45 522.348 11.798 522.384 12.074C522.426 12.344 522.516 12.548 522.654 12.686C522.798 12.818 523.026 12.884 523.338 12.884H523.5L523.248 14.18H523.122C522.6 14.18 522.195 14.129 521.907 14.027C521.625 13.925 521.409 13.778 521.259 13.586C521.109 13.394 520.974 13.16 520.854 12.884C520.524 13.268 520.134 13.58 519.684 13.82C519.234 14.06 518.724 14.18 518.154 14.18ZM518.46 12.884C518.892 12.884 519.309 12.776 519.711 12.56C520.119 12.344 520.452 12.056 520.71 11.696V9.59C519.852 9.62 519.156 9.704 518.622 9.842C518.094 9.98 517.707 10.187 517.461 10.463C517.215 10.739 517.092 11.096 517.092 11.534C517.092 12.008 517.218 12.353 517.47 12.569C517.728 12.779 518.058 12.884 518.46 12.884ZM527.918 14.18C527.228 14.18 526.64 14.042 526.154 13.766C525.668 13.484 525.296 13.058 525.038 12.488C524.786 11.918 524.66 11.192 524.66 10.31V5.18H526.28V9.86C526.28 10.796 526.439 11.51 526.757 12.002C527.081 12.494 527.606 12.74 528.332 12.74C528.83 12.74 529.292 12.62 529.718 12.38C530.144 12.14 530.438 11.756 530.6 11.228L530.366 12.11V5.18H531.986V14H530.546L530.222 12.272L530.654 12.56C530.36 13.106 530 13.514 529.574 13.784C529.154 14.048 528.602 14.18 527.918 14.18ZM538.24 14.18C537.244 14.18 536.407 13.979 535.729 13.577C535.057 13.169 534.547 12.623 534.199 11.939C533.857 11.249 533.686 10.484 533.686 9.644C533.686 8.768 533.851 7.979 534.181 7.277C534.517 6.575 535.03 6.02 535.72 5.612C536.41 5.204 537.292 5 538.366 5C538.828 5 539.263 5.048 539.671 5.144C540.085 5.234 540.454 5.36 540.778 5.522L540.526 6.944C540.196 6.788 539.845 6.665 539.473 6.575C539.107 6.485 538.726 6.44 538.33 6.44C537.358 6.44 536.617 6.716 536.107 7.268C535.597 7.82 535.342 8.588 535.342 9.572C535.342 10.532 535.585 11.303 536.071 11.885C536.557 12.467 537.298 12.758 538.294 12.758C538.702 12.758 539.092 12.71 539.464 12.614C539.842 12.518 540.202 12.386 540.544 12.218L540.76 13.514C540.52 13.682 540.169 13.835 539.707 13.973C539.245 14.111 538.756 14.18 538.24 14.18ZM542.364 14V5.18H543.984V14H542.364ZM542.364 3.2V1.4H543.984V3.2H542.364ZM550.516 14.18C549.898 14.18 549.298 14.033 548.716 13.739C548.14 13.439 547.738 12.998 547.51 12.416L547.906 12.128L547.6 14H546.16V0.499999H547.78V6.908L547.438 6.656C547.738 6.17 548.167 5.774 548.725 5.468C549.283 5.156 549.88 5 550.516 5C551.338 5 552.046 5.216 552.64 5.648C553.234 6.074 553.69 6.638 554.008 7.34C554.332 8.036 554.494 8.786 554.494 9.59C554.494 10.448 554.317 11.225 553.963 11.921C553.609 12.611 553.132 13.16 552.532 13.568C551.932 13.976 551.26 14.18 550.516 14.18ZM550.318 12.74C550.834 12.74 551.281 12.599 551.659 12.317C552.037 12.029 552.328 11.648 552.532 11.174C552.736 10.694 552.838 10.166 552.838 9.59C552.838 8.99 552.736 8.453 552.532 7.979C552.328 7.505 552.037 7.13 551.659 6.854C551.281 6.578 550.834 6.44 550.318 6.44C549.856 6.44 549.424 6.557 549.022 6.791C548.626 7.019 548.305 7.367 548.059 7.835C547.813 8.297 547.69 8.882 547.69 9.59C547.69 10.328 547.813 10.928 548.059 11.39C548.305 11.852 548.626 12.194 549.022 12.416C549.424 12.632 549.856 12.74 550.318 12.74ZM559.33 14.18C558.64 14.18 558.052 14.042 557.566 13.766C557.08 13.484 556.708 13.058 556.45 12.488C556.198 11.918 556.072 11.192 556.072 10.31V5.18H557.692V9.86C557.692 10.796 557.851 11.51 558.169 12.002C558.493 12.494 559.018 12.74 559.744 12.74C560.242 12.74 560.704 12.62 561.13 12.38C561.556 12.14 561.85 11.756 562.012 11.228L561.778 12.11V5.18H563.398V14H561.958L561.634 12.272L562.066 12.56C561.772 13.106 561.412 13.514 560.986 13.784C560.566 14.048 560.014 14.18 559.33 14.18ZM568.104 14.18C567.324 14.18 566.676 14.087 566.16 13.901C565.65 13.715 565.29 13.55 565.08 13.406L565.278 11.84C565.47 12.008 565.809 12.2 566.295 12.416C566.781 12.632 567.36 12.74 568.032 12.74C568.602 12.74 569.037 12.644 569.337 12.452C569.643 12.26 569.796 11.99 569.796 11.642C569.796 11.336 569.697 11.09 569.499 10.904C569.307 10.712 569.073 10.562 568.797 10.454C568.527 10.34 568.272 10.25 568.032 10.184C567.63 10.076 567.213 9.941 566.781 9.779C566.355 9.611 565.995 9.362 565.701 9.032C565.407 8.702 565.26 8.24 565.26 7.646C565.26 7.196 565.368 6.77 565.584 6.368C565.8 5.96 566.151 5.63 566.637 5.378C567.123 5.126 567.768 5 568.572 5C569.16 5 569.637 5.063 570.003 5.189C570.375 5.309 570.696 5.438 570.966 5.576L570.768 7.052C570.51 6.836 570.21 6.653 569.868 6.503C569.526 6.353 569.106 6.278 568.608 6.278C568.104 6.278 567.693 6.374 567.375 6.566C567.057 6.752 566.898 7.052 566.898 7.466C566.898 7.88 567.066 8.174 567.402 8.348C567.744 8.522 568.26 8.714 568.95 8.924C569.166 8.984 569.415 9.071 569.697 9.185C569.985 9.299 570.264 9.452 570.534 9.644C570.804 9.836 571.026 10.088 571.2 10.4C571.38 10.706 571.47 11.09 571.47 11.552C571.47 11.942 571.377 12.341 571.191 12.749C571.005 13.151 570.669 13.49 570.183 13.766C569.697 14.042 569.004 14.18 568.104 14.18ZM3.942 42V30.948H0.27V29.4H9.324V30.948H5.652V42H3.942ZM10.5375 42V33.18H12.1575V42H10.5375ZM10.5375 31.2V29.4H12.1575V31.2H10.5375ZM14.3519 42V33.18H15.6119L15.9359 34.872L15.3059 34.602C15.8999 33.942 16.4789 33.51 17.0429 33.306C17.6129 33.102 18.1679 33 18.7079 33C19.9979 33 20.9189 33.372 21.4709 34.116C22.0289 34.86 22.3079 35.868 22.3079 37.14V42H20.6879V37.14C20.6879 36.204 20.5139 35.52 20.1659 35.088C19.8179 34.656 19.2239 34.44 18.3839 34.44C17.7899 34.44 17.2439 34.572 16.7459 34.836C16.2539 35.094 15.9299 35.508 15.7739 36.078L15.9719 35.088V42H14.3519ZM28.4566 42.18C27.4606 42.18 26.6236 41.979 25.9456 41.577C25.2736 41.169 24.7636 40.623 24.4156 39.939C24.0736 39.249 23.9026 38.484 23.9026 37.644C23.9026 36.768 24.0676 35.979 24.3976 35.277C24.7336 34.575 25.2466 34.02 25.9366 33.612C26.6266 33.204 27.5086 33 28.5826 33C29.0446 33 29.4796 33.048 29.8876 33.144C30.3016 33.234 30.6706 33.36 30.9946 33.522L30.7426 34.944C30.4126 34.788 30.0616 34.665 29.6896 34.575C29.3236 34.485 28.9426 34.44 28.5466 34.44C27.5746 34.44 26.8336 34.716 26.3236 35.268C25.8136 35.82 25.5586 36.588 25.5586 37.572C25.5586 38.532 25.8016 39.303 26.2876 39.885C26.7736 40.467 27.5146 40.758 28.5106 40.758C28.9186 40.758 29.3086 40.71 29.6806 40.614C30.0586 40.518 30.4186 40.386 30.7606 40.218L30.9766 41.514C30.7366 41.682 30.3856 41.835 29.9236 41.973C29.4616 42.111 28.9726 42.18 28.4566 42.18ZM32.5804 42V33.18H34.2004V42H32.5804ZM32.5804 31.2V29.4H34.2004V31.2H32.5804ZM39.8869 42.18C39.1369 42.18 38.4589 41.976 37.8529 41.568C37.2469 41.16 36.7639 40.611 36.4039 39.921C36.0499 39.231 35.8729 38.46 35.8729 37.608C35.8729 36.798 36.0349 36.042 36.3589 35.34C36.6889 34.638 37.1539 34.074 37.7539 33.648C38.3539 33.216 39.0649 33 39.8869 33C40.4749 33 41.0419 33.129 41.5879 33.387C42.1399 33.639 42.5869 34.062 42.9289 34.656L42.5869 34.89V28.5H44.2069V42H42.7669L42.4609 40.128L42.8749 40.416C42.6169 40.998 42.2119 41.439 41.6599 41.739C41.1079 42.033 40.5169 42.18 39.8869 42.18ZM40.1749 40.74C40.5829 40.74 40.9849 40.635 41.3809 40.425C41.7829 40.215 42.1129 39.882 42.3709 39.426C42.6349 38.964 42.7669 38.358 42.7669 37.608C42.7669 36.912 42.6349 36.33 42.3709 35.862C42.1129 35.388 41.7829 35.034 41.3809 34.8C40.9849 34.56 40.5829 34.44 40.1749 34.44C39.6229 34.44 39.1489 34.578 38.7529 34.854C38.3569 35.13 38.0539 35.508 37.8439 35.988C37.6339 36.462 37.5289 37.002 37.5289 37.608C37.5289 38.178 37.6339 38.7 37.8439 39.174C38.0539 39.648 38.3569 40.029 38.7529 40.317C39.1489 40.599 39.6229 40.74 40.1749 40.74ZM49.5473 42.18C48.8573 42.18 48.2693 42.042 47.7833 41.766C47.2973 41.484 46.9253 41.058 46.6673 40.488C46.4153 39.918 46.2893 39.192 46.2893 38.31V33.18H47.9093V37.86C47.9093 38.796 48.0683 39.51 48.3863 40.002C48.7103 40.494 49.2353 40.74 49.9613 40.74C50.4593 40.74 50.9213 40.62 51.3473 40.38C51.7733 40.14 52.0673 39.756 52.2293 39.228L51.9953 40.11V33.18H53.6153V42H52.1753L51.8513 40.272L52.2833 40.56C51.9893 41.106 51.6293 41.514 51.2033 41.784C50.7833 42.048 50.2313 42.18 49.5473 42.18ZM55.8187 42V33.18H57.0787L57.4027 34.872L56.7727 34.602C57.3667 33.942 57.9457 33.51 58.5097 33.306C59.0797 33.102 59.6347 33 60.1747 33C61.4647 33 62.3857 33.372 62.9377 34.116C63.4957 34.86 63.7747 35.868 63.7747 37.14V42H62.1547V37.14C62.1547 36.204 61.9807 35.52 61.6327 35.088C61.2847 34.656 60.6907 34.44 59.8507 34.44C59.2567 34.44 58.7107 34.572 58.2127 34.836C57.7207 35.094 57.3967 35.508 57.2407 36.078L57.4387 35.088V42H55.8187ZM68.7748 42.18C68.2168 42.18 67.7698 42.078 67.4338 41.874C67.0978 41.67 66.8518 41.409 66.6958 41.091C66.5458 40.767 66.4708 40.428 66.4708 40.074V34.44H64.9588L65.1028 33.18H66.4708V31.002L68.0908 30.84V33.18H70.4128V34.44H68.0908V39.084C68.0908 39.648 68.1238 40.056 68.1898 40.308C68.2558 40.56 68.4178 40.719 68.6758 40.785C68.9398 40.851 69.3628 40.884 69.9448 40.884H70.3588L70.2328 42.18H68.7748ZM76.1822 42V29.4H83.8682V30.948H77.8922V34.638H82.6442V36.186H77.8922V40.452H84.0302V42H76.1822ZM88.6586 42.18C87.9686 42.18 87.3806 42.042 86.8946 41.766C86.4086 41.484 86.0366 41.058 85.7786 40.488C85.5266 39.918 85.4006 39.192 85.4006 38.31V33.18H87.0206V37.86C87.0206 38.796 87.1796 39.51 87.4976 40.002C87.8216 40.494 88.3466 40.74 89.0726 40.74C89.5706 40.74 90.0326 40.62 90.4586 40.38C90.8846 40.14 91.1786 39.756 91.3406 39.228L91.1066 40.11V33.18H92.7266V42H91.2866L90.9626 40.272L91.3946 40.56C91.1006 41.106 90.7406 41.514 90.3146 41.784C89.8946 42.048 89.3426 42.18 88.6586 42.18ZM106.119 38.598H100.719V37.05H106.119V38.598ZM103.167 31.074H103.671L99.801 42H98.001L102.519 29.4H104.319L108.837 42H107.037L103.167 31.074ZM113.363 42.18C112.613 42.18 111.935 41.976 111.329 41.568C110.723 41.16 110.24 40.611 109.88 39.921C109.526 39.231 109.349 38.46 109.349 37.608C109.349 36.798 109.511 36.042 109.835 35.34C110.165 34.638 110.63 34.074 111.23 33.648C111.83 33.216 112.541 33 113.363 33C113.951 33 114.518 33.129 115.064 33.387C115.616 33.639 116.063 34.062 116.405 34.656L116.063 34.89V28.5H117.683V42H116.243L115.937 40.128L116.351 40.416C116.093 40.998 115.688 41.439 115.136 41.739C114.584 42.033 113.993 42.18 113.363 42.18ZM113.651 40.74C114.059 40.74 114.461 40.635 114.857 40.425C115.259 40.215 115.589 39.882 115.847 39.426C116.111 38.964 116.243 38.358 116.243 37.608C116.243 36.912 116.111 36.33 115.847 35.862C115.589 35.388 115.259 35.034 114.857 34.8C114.461 34.56 114.059 34.44 113.651 34.44C113.099 34.44 112.625 34.578 112.229 34.854C111.833 35.13 111.53 35.508 111.32 35.988C111.11 36.462 111.005 37.002 111.005 37.608C111.005 38.178 111.11 38.7 111.32 39.174C111.53 39.648 111.833 40.029 112.229 40.317C112.625 40.599 113.099 40.74 113.651 40.74ZM119.856 42V33.18H121.476V42H119.856ZM119.856 31.2V29.4H121.476V31.2H119.856ZM123.67 46.356V33.18H124.93L125.218 35.196L124.768 34.872C125.14 34.296 125.599 33.84 126.145 33.504C126.691 33.168 127.36 33 128.152 33C128.956 33 129.646 33.204 130.222 33.612C130.798 34.02 131.239 34.572 131.545 35.268C131.851 35.958 132.004 36.732 132.004 37.59C132.004 38.448 131.86 39.225 131.572 39.921C131.284 40.611 130.855 41.16 130.285 41.568C129.715 41.976 129.004 42.18 128.152 42.18C127.45 42.18 126.814 42.036 126.244 41.748C125.68 41.454 125.272 41.016 125.02 40.434L125.29 40.11V46.356H123.67ZM127.846 40.74C128.632 40.74 129.244 40.464 129.682 39.912C130.126 39.354 130.348 38.58 130.348 37.59C130.348 36.6 130.126 35.829 129.682 35.277C129.244 34.719 128.632 34.44 127.846 34.44C127.36 34.44 126.916 34.557 126.514 34.791C126.118 35.019 125.8 35.367 125.56 35.835C125.32 36.297 125.2 36.882 125.2 37.59C125.2 38.328 125.32 38.928 125.56 39.39C125.8 39.852 126.118 40.194 126.514 40.416C126.916 40.632 127.36 40.74 127.846 40.74ZM133.69 42V33.18H135.31V42H133.69ZM133.69 31.2V29.4H135.31V31.2H133.69ZM140.006 42.18C139.226 42.18 138.578 42.087 138.062 41.901C137.552 41.715 137.192 41.55 136.982 41.406L137.18 39.84C137.372 40.008 137.711 40.2 138.197 40.416C138.683 40.632 139.262 40.74 139.934 40.74C140.504 40.74 140.939 40.644 141.239 40.452C141.545 40.26 141.698 39.99 141.698 39.642C141.698 39.336 141.599 39.09 141.401 38.904C141.209 38.712 140.975 38.562 140.699 38.454C140.429 38.34 140.174 38.25 139.934 38.184C139.532 38.076 139.115 37.941 138.683 37.779C138.257 37.611 137.897 37.362 137.603 37.032C137.309 36.702 137.162 36.24 137.162 35.646C137.162 35.196 137.27 34.77 137.486 34.368C137.702 33.96 138.053 33.63 138.539 33.378C139.025 33.126 139.67 33 140.474 33C141.062 33 141.539 33.063 141.905 33.189C142.277 33.309 142.598 33.438 142.868 33.576L142.67 35.052C142.412 34.836 142.112 34.653 141.77 34.503C141.428 34.353 141.008 34.278 140.51 34.278C140.006 34.278 139.595 34.374 139.277 34.566C138.959 34.752 138.8 35.052 138.8 35.466C138.8 35.88 138.968 36.174 139.304 36.348C139.646 36.522 140.162 36.714 140.852 36.924C141.068 36.984 141.317 37.071 141.599 37.185C141.887 37.299 142.166 37.452 142.436 37.644C142.706 37.836 142.928 38.088 143.102 38.4C143.282 38.706 143.372 39.09 143.372 39.552C143.372 39.942 143.279 40.341 143.093 40.749C142.907 41.151 142.571 41.49 142.085 41.766C141.599 42.042 140.906 42.18 140.006 42.18ZM149.007 42.18C148.011 42.18 147.174 41.979 146.496 41.577C145.824 41.169 145.314 40.623 144.966 39.939C144.624 39.249 144.453 38.484 144.453 37.644C144.453 36.768 144.618 35.979 144.948 35.277C145.284 34.575 145.797 34.02 146.487 33.612C147.177 33.204 148.059 33 149.133 33C149.595 33 150.03 33.048 150.438 33.144C150.852 33.234 151.221 33.36 151.545 33.522L151.293 34.944C150.963 34.788 150.612 34.665 150.24 34.575C149.874 34.485 149.493 34.44 149.097 34.44C148.125 34.44 147.384 34.716 146.874 35.268C146.364 35.82 146.109 36.588 146.109 37.572C146.109 38.532 146.352 39.303 146.838 39.885C147.324 40.467 148.065 40.758 149.061 40.758C149.469 40.758 149.859 40.71 150.231 40.614C150.609 40.518 150.969 40.386 151.311 40.218L151.527 41.514C151.287 41.682 150.936 41.835 150.474 41.973C150.012 42.111 149.523 42.18 149.007 42.18ZM153.131 42V33.18H154.751V42H153.131ZM153.131 31.2V29.4H154.751V31.2H153.131ZM156.946 42V33.18H158.206L158.53 34.872L157.9 34.602C158.494 33.942 159.073 33.51 159.637 33.306C160.207 33.102 160.762 33 161.302 33C162.592 33 163.513 33.372 164.065 34.116C164.623 34.86 164.902 35.868 164.902 37.14V42H163.282V37.14C163.282 36.204 163.108 35.52 162.76 35.088C162.412 34.656 161.818 34.44 160.978 34.44C160.384 34.44 159.838 34.572 159.34 34.836C158.848 35.094 158.524 35.508 158.368 36.078L158.566 35.088V42H156.946ZM170.564 46.5C169.76 46.5 169.04 46.401 168.404 46.203C167.774 46.005 167.276 45.711 166.91 45.321C166.55 44.931 166.37 44.448 166.37 43.872C166.37 43.392 166.505 42.978 166.775 42.63C167.051 42.288 167.426 42.012 167.9 41.802C167.618 41.664 167.402 41.502 167.252 41.316C167.108 41.124 167.036 40.914 167.036 40.686C167.036 40.416 167.117 40.173 167.279 39.957C167.447 39.735 167.714 39.552 168.08 39.408C167.588 39.102 167.21 38.691 166.946 38.175C166.682 37.653 166.55 37.074 166.55 36.438C166.55 35.796 166.694 35.217 166.982 34.701C167.27 34.179 167.684 33.765 168.224 33.459C168.77 33.153 169.424 33 170.186 33C170.594 33 170.978 33.06 171.338 33.18C171.704 33.3 172.04 33.468 172.346 33.684C172.616 33.528 172.934 33.399 173.3 33.297C173.672 33.195 174.086 33.144 174.542 33.144C174.572 33.144 174.596 33.144 174.614 33.144C174.638 33.144 174.662 33.144 174.686 33.144L174.488 34.224C174.416 34.224 174.347 34.224 174.281 34.224C174.215 34.224 174.146 34.224 174.074 34.224C174.014 34.224 173.876 34.233 173.66 34.251C173.444 34.269 173.246 34.302 173.066 34.35C173.312 34.638 173.501 34.962 173.633 35.322C173.771 35.676 173.84 36.048 173.84 36.438C173.84 37.11 173.693 37.713 173.399 38.247C173.111 38.775 172.694 39.195 172.148 39.507C171.602 39.813 170.948 39.966 170.186 39.966C169.97 39.966 169.763 39.954 169.565 39.93C169.367 39.9 169.178 39.858 168.998 39.804C168.722 39.894 168.584 40.05 168.584 40.272C168.584 40.404 168.662 40.521 168.818 40.623C168.974 40.719 169.226 40.794 169.574 40.848L171.932 41.226C172.886 41.376 173.621 41.652 174.137 42.054C174.659 42.456 174.92 43.026 174.92 43.764C174.92 44.376 174.74 44.883 174.38 45.285C174.026 45.693 173.522 45.996 172.868 46.194C172.214 46.398 171.446 46.5 170.564 46.5ZM170.708 45.06C171.536 45.06 172.172 44.952 172.616 44.736C173.06 44.526 173.282 44.214 173.282 43.8C173.282 43.476 173.141 43.221 172.859 43.035C172.583 42.849 172.184 42.708 171.662 42.612L169.151 42.189C168.821 42.333 168.533 42.525 168.287 42.765C168.041 43.011 167.918 43.296 167.918 43.62C167.918 44.124 168.17 44.49 168.674 44.718C169.184 44.946 169.862 45.06 170.708 45.06ZM170.186 38.67C170.87 38.67 171.392 38.466 171.752 38.058C172.112 37.644 172.292 37.11 172.292 36.456C172.292 35.826 172.112 35.31 171.752 34.908C171.392 34.5 170.87 34.296 170.186 34.296C169.502 34.296 168.983 34.5 168.629 34.908C168.275 35.31 168.098 35.826 168.098 36.456C168.098 37.11 168.275 37.644 168.629 38.058C168.983 38.466 169.502 38.67 170.186 38.67ZM183.95 42.252C183.428 42.252 182.906 42.213 182.384 42.135C181.862 42.057 181.379 41.958 180.935 41.838C180.491 41.712 180.122 41.58 179.828 41.442L180.062 39.624C180.386 39.78 180.776 39.942 181.232 40.11C181.694 40.278 182.192 40.419 182.726 40.533C183.26 40.647 183.8 40.704 184.346 40.704C185.156 40.704 185.798 40.557 186.272 40.263C186.752 39.963 186.992 39.498 186.992 38.868C186.992 38.394 186.872 38.007 186.632 37.707C186.392 37.401 186.029 37.14 185.543 36.924C185.063 36.708 184.46 36.492 183.734 36.276C183.044 36.072 182.408 35.832 181.826 35.556C181.244 35.274 180.776 34.899 180.422 34.431C180.074 33.957 179.9 33.33 179.9 32.55C179.9 31.884 180.071 31.296 180.413 30.786C180.761 30.27 181.268 29.868 181.934 29.58C182.606 29.292 183.428 29.148 184.4 29.148C185.228 29.148 185.987 29.238 186.677 29.418C187.373 29.598 187.946 29.796 188.396 30.012L188.216 31.83C187.532 31.422 186.878 31.131 186.254 30.957C185.636 30.783 184.994 30.696 184.328 30.696C183.59 30.696 182.978 30.834 182.492 31.11C182.012 31.386 181.772 31.836 181.772 32.46C181.772 32.88 181.88 33.225 182.096 33.495C182.312 33.759 182.633 33.987 183.059 34.179C183.485 34.365 184.016 34.554 184.652 34.746C185.528 35.01 186.281 35.313 186.911 35.655C187.541 35.991 188.024 36.408 188.36 36.906C188.696 37.398 188.864 38.01 188.864 38.742C188.864 39.282 188.762 39.768 188.558 40.2C188.354 40.632 188.048 41.001 187.64 41.307C187.232 41.613 186.719 41.847 186.101 42.009C185.489 42.171 184.772 42.252 183.95 42.252ZM194.372 42.18C193.448 42.18 192.659 41.976 192.005 41.568C191.357 41.154 190.859 40.602 190.511 39.912C190.169 39.216 189.998 38.442 189.998 37.59C189.998 36.738 190.169 35.967 190.511 35.277C190.859 34.581 191.357 34.029 192.005 33.621C192.659 33.207 193.448 33 194.372 33C195.29 33 196.076 33.207 196.73 33.621C197.384 34.029 197.882 34.581 198.224 35.277C198.572 35.967 198.746 36.738 198.746 37.59C198.746 38.442 198.572 39.216 198.224 39.912C197.882 40.602 197.384 41.154 196.73 41.568C196.076 41.976 195.29 42.18 194.372 42.18ZM194.372 40.74C195.248 40.74 195.92 40.464 196.388 39.912C196.856 39.354 197.09 38.58 197.09 37.59C197.09 36.6 196.856 35.829 196.388 35.277C195.92 34.719 195.248 34.44 194.372 34.44C193.502 34.44 192.83 34.719 192.356 35.277C191.888 35.829 191.654 36.6 191.654 37.59C191.654 38.58 191.888 39.354 192.356 39.912C192.83 40.464 193.502 40.74 194.372 40.74ZM204.466 42.18C203.47 42.18 202.633 41.979 201.955 41.577C201.283 41.169 200.773 40.623 200.425 39.939C200.083 39.249 199.912 38.484 199.912 37.644C199.912 36.768 200.077 35.979 200.407 35.277C200.743 34.575 201.256 34.02 201.946 33.612C202.636 33.204 203.518 33 204.592 33C205.054 33 205.489 33.048 205.897 33.144C206.311 33.234 206.68 33.36 207.004 33.522L206.752 34.944C206.422 34.788 206.071 34.665 205.699 34.575C205.333 34.485 204.952 34.44 204.556 34.44C203.584 34.44 202.843 34.716 202.333 35.268C201.823 35.82 201.568 36.588 201.568 37.572C201.568 38.532 201.811 39.303 202.297 39.885C202.783 40.467 203.524 40.758 204.52 40.758C204.928 40.758 205.318 40.71 205.69 40.614C206.068 40.518 206.428 40.386 206.77 40.218L206.986 41.514C206.746 41.682 206.395 41.835 205.933 41.973C205.471 42.111 204.982 42.18 204.466 42.18ZM208.59 42V33.18H210.21V42H208.59ZM208.59 31.2V29.4H210.21V31.2H208.59ZM212.405 42V33.18H214.025V42H212.405ZM212.405 31.2V29.4H214.025V31.2H212.405ZM218.721 42.18C217.941 42.18 217.293 42.087 216.777 41.901C216.267 41.715 215.907 41.55 215.697 41.406L215.895 39.84C216.087 40.008 216.426 40.2 216.912 40.416C217.398 40.632 217.977 40.74 218.649 40.74C219.219 40.74 219.654 40.644 219.954 40.452C220.26 40.26 220.413 39.99 220.413 39.642C220.413 39.336 220.314 39.09 220.116 38.904C219.924 38.712 219.69 38.562 219.414 38.454C219.144 38.34 218.889 38.25 218.649 38.184C218.247 38.076 217.83 37.941 217.398 37.779C216.972 37.611 216.612 37.362 216.318 37.032C216.024 36.702 215.877 36.24 215.877 35.646C215.877 35.196 215.985 34.77 216.201 34.368C216.417 33.96 216.768 33.63 217.254 33.378C217.74 33.126 218.385 33 219.189 33C219.777 33 220.254 33.063 220.62 33.189C220.992 33.309 221.313 33.438 221.583 33.576L221.385 35.052C221.127 34.836 220.827 34.653 220.485 34.503C220.143 34.353 219.723 34.278 219.225 34.278C218.721 34.278 218.31 34.374 217.992 34.566C217.674 34.752 217.515 35.052 217.515 35.466C217.515 35.88 217.683 36.174 218.019 36.348C218.361 36.522 218.877 36.714 219.567 36.924C219.783 36.984 220.032 37.071 220.314 37.185C220.602 37.299 220.881 37.452 221.151 37.644C221.421 37.836 221.643 38.088 221.817 38.4C221.997 38.706 222.087 39.09 222.087 39.552C222.087 39.942 221.994 40.341 221.808 40.749C221.622 41.151 221.286 41.49 220.8 41.766C220.314 42.042 219.621 42.18 218.721 42.18ZM234.861 38.598H229.461V37.05H234.861V38.598ZM231.909 31.074H232.413L228.543 42H226.743L231.261 29.4H233.061L237.579 42H235.779L231.909 31.074ZM238.807 42V33.18H240.139L240.337 34.638C240.787 34.08 241.216 33.669 241.624 33.405C242.038 33.135 242.479 33 242.947 33C243.097 33 243.235 33.018 243.361 33.054L243.199 34.836C243.121 34.818 243.037 34.806 242.947 34.8C242.863 34.788 242.767 34.782 242.659 34.782C242.191 34.782 241.759 34.887 241.363 35.097C240.973 35.301 240.697 35.526 240.535 35.772V42H238.807ZM248.324 42.18C247.328 42.18 246.491 41.979 245.813 41.577C245.141 41.169 244.631 40.623 244.283 39.939C243.941 39.249 243.77 38.484 243.77 37.644C243.77 36.768 243.935 35.979 244.265 35.277C244.601 34.575 245.114 34.02 245.804 33.612C246.494 33.204 247.376 33 248.45 33C248.912 33 249.347 33.048 249.755 33.144C250.169 33.234 250.538 33.36 250.862 33.522L250.61 34.944C250.28 34.788 249.929 34.665 249.557 34.575C249.191 34.485 248.81 34.44 248.414 34.44C247.442 34.44 246.701 34.716 246.191 35.268C245.681 35.82 245.426 36.588 245.426 37.572C245.426 38.532 245.669 39.303 246.155 39.885C246.641 40.467 247.382 40.758 248.378 40.758C248.786 40.758 249.176 40.71 249.548 40.614C249.926 40.518 250.286 40.386 250.628 40.218L250.844 41.514C250.604 41.682 250.253 41.835 249.791 41.973C249.329 42.111 248.84 42.18 248.324 42.18ZM255.616 42.18C254.926 42.18 254.338 42.042 253.852 41.766C253.366 41.484 252.994 41.058 252.736 40.488C252.484 39.918 252.358 39.192 252.358 38.31V33.18H253.978V37.86C253.978 38.796 254.137 39.51 254.455 40.002C254.779 40.494 255.304 40.74 256.03 40.74C256.528 40.74 256.99 40.62 257.416 40.38C257.842 40.14 258.136 39.756 258.298 39.228L258.064 40.11V33.18H259.684V42H258.244L257.92 40.272L258.352 40.56C258.058 41.106 257.698 41.514 257.272 41.784C256.852 42.048 256.3 42.18 255.616 42.18ZM266.272 42V29.4H267.982V40.452H273.76V42H266.272ZM278.624 42.18C277.7 42.18 276.911 41.976 276.257 41.568C275.609 41.154 275.111 40.602 274.763 39.912C274.421 39.216 274.25 38.442 274.25 37.59C274.25 36.738 274.421 35.967 274.763 35.277C275.111 34.581 275.609 34.029 276.257 33.621C276.911 33.207 277.7 33 278.624 33C279.542 33 280.328 33.207 280.982 33.621C281.636 34.029 282.134 34.581 282.476 35.277C282.824 35.967 282.998 36.738 282.998 37.59C282.998 38.442 282.824 39.216 282.476 39.912C282.134 40.602 281.636 41.154 280.982 41.568C280.328 41.976 279.542 42.18 278.624 42.18ZM278.624 40.74C279.5 40.74 280.172 40.464 280.64 39.912C281.108 39.354 281.342 38.58 281.342 37.59C281.342 36.6 281.108 35.829 280.64 35.277C280.172 34.719 279.5 34.44 278.624 34.44C277.754 34.44 277.082 34.719 276.608 35.277C276.14 35.829 275.906 36.6 275.906 37.59C275.906 38.58 276.14 39.354 276.608 39.912C277.082 40.464 277.754 40.74 278.624 40.74ZM284.668 42V33.18H286L286.198 34.638C286.648 34.08 287.077 33.669 287.485 33.405C287.899 33.135 288.34 33 288.808 33C288.958 33 289.096 33.018 289.222 33.054L289.06 34.836C288.982 34.818 288.898 34.806 288.808 34.8C288.724 34.788 288.628 34.782 288.52 34.782C288.052 34.782 287.62 34.887 287.224 35.097C286.834 35.301 286.558 35.526 286.396 35.772V42H284.668ZM294.365 42.18C293.327 42.18 292.454 41.967 291.746 41.541C291.038 41.115 290.501 40.551 290.135 39.849C289.775 39.141 289.595 38.364 289.595 37.518C289.595 36.696 289.763 35.943 290.099 35.259C290.441 34.575 290.933 34.029 291.575 33.621C292.223 33.207 293.003 33 293.915 33C294.647 33 295.298 33.147 295.868 33.441C296.444 33.729 296.894 34.152 297.218 34.71C297.548 35.262 297.713 35.934 297.713 36.726C297.713 36.852 297.707 36.99 297.695 37.14C297.689 37.284 297.671 37.434 297.641 37.59H291.251C291.329 38.406 291.524 39.042 291.836 39.498C292.148 39.954 292.541 40.275 293.015 40.461C293.489 40.647 294.005 40.74 294.563 40.74C294.971 40.74 295.397 40.698 295.841 40.614C296.285 40.53 296.705 40.398 297.101 40.218L297.317 41.496C296.975 41.646 296.558 41.799 296.066 41.955C295.574 42.105 295.007 42.18 294.365 42.18ZM291.395 36.474H296.039C296.039 36.06 295.961 35.7 295.805 35.394C295.649 35.088 295.412 34.854 295.094 34.692C294.776 34.524 294.371 34.44 293.879 34.44C293.159 34.44 292.604 34.62 292.214 34.98C291.83 35.334 291.557 35.832 291.395 36.474ZM299.346 42V33.18H300.606L300.93 34.872L300.318 34.584C300.87 33.99 301.407 33.579 301.929 33.351C302.451 33.117 303 33 303.576 33C304.008 33 304.422 33.072 304.818 33.216C305.22 33.354 305.58 33.6 305.898 33.954C306.222 34.302 306.48 34.788 306.672 35.412L306.222 35.214C306.486 34.53 306.891 33.99 307.437 33.594C307.983 33.198 308.718 33 309.642 33C310.38 33 311.001 33.138 311.505 33.414C312.009 33.684 312.387 34.101 312.639 34.665C312.897 35.223 313.026 35.934 313.026 36.798V42H311.406V36.816C311.406 35.988 311.244 35.385 310.92 35.007C310.596 34.629 310.068 34.44 309.336 34.44C308.82 34.44 308.406 34.521 308.094 34.683C307.782 34.839 307.545 35.043 307.383 35.295C307.227 35.547 307.122 35.814 307.068 36.096C307.02 36.378 306.996 36.642 306.996 36.888V42H305.376V37.14C305.376 36.42 305.289 35.865 305.115 35.475C304.941 35.085 304.698 34.815 304.386 34.665C304.074 34.515 303.714 34.44 303.306 34.44C302.712 34.44 302.181 34.572 301.713 34.836C301.245 35.094 300.93 35.508 300.768 36.078L300.966 35.196V42H299.346ZM319.516 42V29.4H323.674C324.52 29.4 325.264 29.535 325.906 29.805C326.548 30.075 327.046 30.51 327.4 31.11C327.76 31.71 327.94 32.502 327.94 33.486C327.94 34.452 327.76 35.238 327.4 35.844C327.046 36.444 326.548 36.885 325.906 37.167C325.264 37.449 324.52 37.59 323.674 37.59H321.316V42H319.516ZM321.316 36.06H323.422C324.34 36.06 325.027 35.853 325.483 35.439C325.945 35.019 326.176 34.374 326.176 33.504C326.176 32.628 325.957 31.98 325.519 31.56C325.087 31.14 324.388 30.93 323.422 30.93H321.316V36.06ZM333.098 42.18C332.174 42.18 331.385 41.976 330.731 41.568C330.083 41.154 329.585 40.602 329.237 39.912C328.895 39.216 328.724 38.442 328.724 37.59C328.724 36.738 328.895 35.967 329.237 35.277C329.585 34.581 330.083 34.029 330.731 33.621C331.385 33.207 332.174 33 333.098 33C334.016 33 334.802 33.207 335.456 33.621C336.11 34.029 336.608 34.581 336.95 35.277C337.298 35.967 337.472 36.738 337.472 37.59C337.472 38.442 337.298 39.216 336.95 39.912C336.608 40.602 336.11 41.154 335.456 41.568C334.802 41.976 334.016 42.18 333.098 42.18ZM333.098 40.74C333.974 40.74 334.646 40.464 335.114 39.912C335.582 39.354 335.816 38.58 335.816 37.59C335.816 36.6 335.582 35.829 335.114 35.277C334.646 34.719 333.974 34.44 333.098 34.44C332.228 34.44 331.556 34.719 331.082 35.277C330.614 35.829 330.38 36.6 330.38 37.59C330.38 38.58 330.614 39.354 331.082 39.912C331.556 40.464 332.228 40.74 333.098 40.74ZM339.143 42V33.18H340.475L340.673 34.638C341.123 34.08 341.552 33.669 341.96 33.405C342.374 33.135 342.815 33 343.283 33C343.433 33 343.571 33.018 343.697 33.054L343.535 34.836C343.457 34.818 343.373 34.806 343.283 34.8C343.199 34.788 343.103 34.782 342.995 34.782C342.527 34.782 342.095 34.887 341.699 35.097C341.309 35.301 341.033 35.526 340.871 35.772V42H339.143ZM347.88 42.18C347.322 42.18 346.875 42.078 346.539 41.874C346.203 41.67 345.957 41.409 345.801 41.091C345.651 40.767 345.576 40.428 345.576 40.074V34.44H344.064L344.208 33.18H345.576V31.002L347.196 30.84V33.18H349.518V34.44H347.196V39.084C347.196 39.648 347.229 40.056 347.295 40.308C347.361 40.56 347.523 40.719 347.781 40.785C348.045 40.851 348.468 40.884 349.05 40.884H349.464L349.338 42.18H347.88ZM353.945 42.18C353.387 42.18 352.94 42.078 352.604 41.874C352.268 41.67 352.022 41.409 351.866 41.091C351.716 40.767 351.641 40.428 351.641 40.074V34.44H350.129L350.273 33.18H351.641V31.002L353.261 30.84V33.18H355.583V34.44H353.261V39.084C353.261 39.648 353.294 40.056 353.36 40.308C353.426 40.56 353.588 40.719 353.846 40.785C354.11 40.851 354.533 40.884 355.115 40.884H355.529L355.403 42.18H353.945ZM356.967 42V33.18H358.587V42H356.967ZM356.967 31.2V29.4H358.587V31.2H356.967ZM363.824 42.18C363.266 42.18 362.819 42.078 362.483 41.874C362.147 41.67 361.901 41.409 361.745 41.091C361.595 40.767 361.52 40.428 361.52 40.074V34.44H360.008L360.152 33.18H361.52V31.002L363.14 30.84V33.18H365.462V34.44H363.14V39.084C363.14 39.648 363.173 40.056 363.239 40.308C363.305 40.56 363.467 40.719 363.725 40.785C363.989 40.851 364.412 40.884 364.994 40.884H365.408L365.282 42.18H363.824ZM370.628 42.18C369.704 42.18 368.915 41.976 368.261 41.568C367.613 41.154 367.115 40.602 366.767 39.912C366.425 39.216 366.254 38.442 366.254 37.59C366.254 36.738 366.425 35.967 366.767 35.277C367.115 34.581 367.613 34.029 368.261 33.621C368.915 33.207 369.704 33 370.628 33C371.546 33 372.332 33.207 372.986 33.621C373.64 34.029 374.138 34.581 374.48 35.277C374.828 35.967 375.002 36.738 375.002 37.59C375.002 38.442 374.828 39.216 374.48 39.912C374.138 40.602 373.64 41.154 372.986 41.568C372.332 41.976 371.546 42.18 370.628 42.18ZM370.628 40.74C371.504 40.74 372.176 40.464 372.644 39.912C373.112 39.354 373.346 38.58 373.346 37.59C373.346 36.6 373.112 35.829 372.644 35.277C372.176 34.719 371.504 34.44 370.628 34.44C369.758 34.44 369.086 34.719 368.612 35.277C368.144 35.829 367.91 36.6 367.91 37.59C367.91 38.58 368.144 39.354 368.612 39.912C369.086 40.464 369.758 40.74 370.628 40.74ZM376.672 42V33.18H378.004L378.202 34.638C378.652 34.08 379.081 33.669 379.489 33.405C379.903 33.135 380.344 33 380.812 33C380.962 33 381.1 33.018 381.226 33.054L381.064 34.836C380.986 34.818 380.902 34.806 380.812 34.8C380.728 34.788 380.632 34.782 380.524 34.782C380.056 34.782 379.624 34.887 379.228 35.097C378.838 35.301 378.562 35.526 378.4 35.772V42H376.672ZM381.642 42V40.092H383.586V42H381.642Z" fill="black"/>
</svg>
